/* XPM */
static char *_1621ef0f56b421e8b3e04f1e001e304WSfCdVPep0nZIwmJ[] = {
/* columns rows colors chars-per-pixel */
"60 60 207 2 ",
"   c None",
".  c #040302",
"X  c #090707",
"o  c #050609",
"O  c #0C0B0B",
"+  c #0C0808",
"@  c #120E0E",
"#  c #10100F",
"$  c #0E0E10",
"%  c #120F10",
"&  c #1A0E11",
"*  c #0F1115",
"=  c #131213",
"-  c #1B1314",
";  c #15161A",
":  c #1A1618",
">  c #16191E",
",  c #1B1A1C",
"<  c #1F1814",
"1  c #231619",
"2  c #241A1C",
"3  c #2B1C1D",
"4  c #261717",
"5  c #331C1C",
"6  c #311A15",
"7  c #2B201C",
"8  c #32241F",
"9  c #3B2B1C",
"0  c #3A271D",
"q  c #1C1E23",
"w  c #1D1F29",
"e  c #231E22",
"r  c #2B1C21",
"t  c #331C22",
"y  c #381E25",
"u  c #1E2126",
"i  c #1E212A",
"p  c #222224",
"a  c #22242B",
"s  c #2B262A",
"d  c #27292A",
"f  c #2B2C2D",
"g  c #3B2B22",
"h  c #382627",
"j  c #262A34",
"k  c #2B2D33",
"l  c #262A39",
"z  c #2A2E3B",
"x  c #202330",
"c  c #2C3036",
"v  c #2D323B",
"b  c #333335",
"n  c #33363D",
"m  c #36393D",
"M  c #3A3B3C",
"N  c #3C353C",
"B  c #312A32",
"V  c #432A25",
"C  c #452B28",
"Z  c #493525",
"A  c #4E322C",
"S  c #473628",
"D  c #5C342D",
"F  c #543D29",
"G  c #55382B",
"H  c #5C3630",
"J  c #512D26",
"K  c #663A31",
"L  c #6A3C32",
"P  c #56402C",
"I  c #46413C",
"U  c #61442E",
"Y  c #664431",
"T  c #774E34",
"R  c #735134",
"E  c #2E3441",
"W  c #2E3846",
"Q  c #313642",
"!  c #343A44",
"~  c #3B3C43",
"^  c #353C4A",
"/  c #383F4A",
"(  c #3A3740",
")  c #413E47",
"_  c #3D4246",
"`  c #3A414E",
"'  c #36404E",
"]  c #3C4453",
"[  c #3C4758",
"{  c #3F495B",
"}  c #414344",
"|  c #42444B",
" . c #464A4D",
".. c #4C4A4C",
"X. c #434650",
"o. c #434955",
"O. c #494C55",
"+. c #434B5B",
"@. c #4C4E5A",
"#. c #46505F",
"$. c #4E5057",
"%. c #535355",
"&. c #54565C",
"*. c #54595E",
"=. c #595D5E",
"-. c #625155",
";. c #444E60",
":. c #484F60",
">. c #465061",
",. c #495363",
"<. c #46536A",
"1. c #4B586A",
"2. c #545662",
"3. c #565A62",
"4. c #5A5C65",
"5. c #535A6A",
"6. c #5C5E6C",
"7. c #4E5C72",
"8. c #545F73",
"9. c #625F6A",
"0. c #5D6265",
"q. c #5D616A",
"w. c #5C6575",
"e. c #58657B",
"r. c #64696B",
"t. c #6B6A6C",
"y. c #626367",
"u. c #646979",
"i. c #696B7B",
"p. c #676A75",
"a. c #6D7375",
"s. c #65707A",
"d. c #727274",
"f. c #7C7A7B",
"g. c #777779",
"h. c #804E35",
"j. c #956639",
"k. c #C38A3E",
"l. c #CB9040",
"z. c #5B6D88",
"x. c #5A6A85",
"c. c #5E718E",
"v. c #6C7381",
"b. c #6D7985",
"n. c #717386",
"m. c #737589",
"M. c #747A8A",
"N. c #787C86",
"B. c #6B7B97",
"V. c #737C93",
"C. c #7B7E93",
"Z. c #636D84",
"A. c #7E8587",
"S. c #74818B",
"D. c #7D868B",
"F. c #7B8393",
"G. c #7C8997",
"H. c #7D849A",
"J. c #778698",
"K. c #7F8AA7",
"L. c #838A8D",
"P. c #858788",
"I. c #868E91",
"U. c #81849A",
"Y. c #828698",
"T. c #89939B",
"R. c #969699",
"E. c #858BA4",
"W. c #8B8FA6",
"Q. c #8C92AC",
"!. c #8B91A7",
"~. c #9195AC",
"^. c #969BAE",
"/. c #949BA4",
"(. c #8C97B3",
"). c #9699B2",
"_. c #989EBA",
"`. c #9AA3A7",
"'. c #9CA2B5",
"]. c #9DA1BC",
"[. c #9BABB6",
"{. c #A2ACAF",
"}. c #A1A6BF",
"|. c #A7ABB1",
" X c #A8B3BD",
".X c #B8B6B9",
"XX c #A2A7C2",
"oX c #A5A9C4",
"OX c #ABAECA",
"+X c #A9AFC3",
"@X c #ADBAC7",
"#X c #B1BAC4",
"$X c #B1B6CD",
"%X c #BDBEC4",
"&X c #B5BCD2",
"*X c #B8BFD2",
"=X c #ADC0CC",
"-X c #BBC5D2",
";X c #BCC3DA",
":X c #B6C1C7",
">X c #C8CAD4",
",X c #D2D1D7",
"<X c #D3D4DB",
"1X c #C6C5CA",
"2X c #D2DFE5",
"3X c #CED9E5",
"4X c #D7E4EA",
/* pixels */
"                                                                                                                        ",
"                                                                                                                        ",
"                                                                                                                        ",
"                                                                                                                        ",
"                                                                                                                        ",
"                                                                                                                        ",
"                                                                                                                        ",
"                                                                                                                        ",
"                                                                                                                        ",
"                                                                                                                        ",
"                                                                                                                        ",
"                                                                                                                        ",
"                                                                                                                        ",
"                                                                                                                        ",
"                                                                                                                        ",
"                                                      p p p p f d                                                       ",
"                                                    _ U.'.).'.@X{.%.                                                    ",
"                                                u +.).oX&X>X$X].oX#XD.f                                                 ",
"                                                u c.B.(.Q.3.f a p a b @                                                 ",
"                                                = <.x.>.p ( 2.0.a.a.&.a.y.k                                             ",
"                                                # a l = ' E.XXF.p.^.3.+X6.d                                             ",
"                                          f %.f.t.N w q ^ V.5.~ U.p W.m.k                                               ",
"                                        = 7 y..X,X.Xt.n $ ^ 7.Z.U.k ~.d                                                 ",
"                                        @ f _ c N f.R..Xd.%.2.<.e.E.].d O M _                                           ",
"                                        > _ *.k v v E ..R.,X%X=.: ! X., O *.D.0.                                        ",
"                                     .S.T.T.v./ k k z ! b %.|.>Xd.S ~ f.} % v J.D.O                                     ",
"                                  : b.w.<.1.,.,.#.#.v d j > -.1X>XP.<X.X) u q o.s.O                                     ",
"                                = u ^ #.,.>.>.,.>.,.#.u w e h -.g.b f...s T.0.> / O                                     ",
"                                d [.` j ] ,.,.,.<./ w o . k N 3 y - : E._.3Xa.* E +                                     ",
"                                q `.w.' z / ] Q z * & % X u.).4.r t r N W.;Xq.o u q                                     ",
"                                 .c n #.>./ e $ o - & B C.].oXXXU.) 3 9 y.-Xa.o +.S.:                                   ",
"                              c  X5.W i i E x * ^ , 5.).oXXXXXXXXX~.P H Z R.6.o v v O     = r.I.L.I.A.f ,               ",
"                               .3.] ] E , * = d 7.7.B.(._.K.z.7.5.S 9 F J h $ % z ( k = /.^.}.&X$X$X$X X Xt.            ",
"                            m =XS.Q d O .       ; >.z.c.;./ n 5 H k.L V 3 3 1 w ;.Q.].6.2.~.m.m.XXXXXXoXoX*XR.%.        ",
"                            u w.>.,.l o         O #.{ j V J D K h.k.L L D 5 -   Q e.U.~ & s r s u.oXXXXXXXXX$X_.2..     ",
"                            > { z z X.q         o j 2 V A H H H h.k.j.L K L 6 *./.$ : 2 4 4 N m.XXoXXXoXoXoXXX).6.u     ",
"                            # j M.m.'.(         . # 7 2 7 7 3 7 F j.j.V 8 3 - | n.% 3 1 { i 6.XXXXC.| W._._.C.5.>./ O   ",
"                              M 2XOXoXb         = , : 2 r y t A T V C T C r - - 1 r ) e { x.! | 4.2 1 j ,.5.<.>.,./ O   ",
"                              M 2X}.3.u         O 7 , 1 2 1 2 r Z Y Y Z 8 2 - - & % | q = z B & + r Q #.,.#.>.,.>.! O   ",
"                              M 2X}.p           %. Xw.w.v 2 g A C L Y D D 3 + % 1 1 - O O 3 & & 5 s ,.,.,.,.,.,.! =     ",
"                              M 2X}.p       X } 2XoXXXXXW.,.p h A A H K V - O @ $ $ O X - 1 % @ e ! ,.,.:.,.>./ p       ",
"                            # I {.k @ + < Z 9 M 4XoXXXXX+XH.,.v 2 C h 1 e u.W.2.; ^ = - - Q o./ +.,.,.,.+.E a           ",
"                            7 9 X & 3 2 U P # b T.}.XXXXoXoXH.W O 2 ! @.W.oXOXu.> ,.+.k +.,.,.,.,.,.+.] a =             ",
"                              X X @ - P Z B ] 1.:.@.O.O.C.).m.v = [ B.V._.oXOXn.a +.,.,.:.,.,.:.+.+.z >                 ",
"                        = - - - - 1 g P h = j _ / +.7.7.+./ ` k : _ >.z.E.].oXXXm.> +.<.{ ] ] ^ l w O                   ",
"                      # = < - - : < 9 7     O b T.v.~ n / >.7.:.' >.>.' / @.V._.n.$ ^ ^ l l w > ;                       ",
"                      O O O O                 } 4X&X~.~.).@.= q v 1.7.;.U.).n.&.4...a w = #                             ",
"                                              } 4X2X;XXXXX%.. > l i w $ X.2.2.Y.-X#XD.I.I.%.e p                         ",
"                                              : | 3.0.*.m d   O = ; = . W n r.N.n k %.!..X`.`.:X`. .                    ",
"                                            , n ,.G.G.=X_               . 6.M.,.Q .     q u *.N.L.a.                    ",
"                                            > ' +.;.>._                 . b ,.[ v .                                     ",
"                                          _ ] l E ] ] =               X $ &.A.p.O.                                      ",
"                                        X ! M.G.G.S.a                 . ] W Q &.%.                                      ",
"                                        . $.F.+.+.Q O                 X <.Q.m.l .                                       ",
"                                        . 3.].V.<.=                   . <.(.OXi..                                       ",
"                                        . ,.OX_.e.=                   . [ x.E.6.+                                       ",
"                                        . *._.B.+.                      O u <.{ o                                       ",
"                                        . b q.{ $                       . d O._ b                                       ",
"                                        r.a.A.f.r.                      *.g.A.L.r.O                                     ",
"                                        0.m o p =.                      %.f + O O # O O O                               "
};
