/* XPM */
static char *_1f86a918882431ede808d3fac665c69ABeJk7Ad4HoqkZFS[] = {
/* columns rows colors chars-per-pixel */
"60 60 22 1 ",
"  c #8A898A",
". c #6B6C71",
"X c #76777B",
"o c #95918F",
"O c #9E9D9C",
"+ c #877871",
"@ c #756058",
"# c #7D6C65",
"$ c #848180",
"% c #6B534C",
"& c #5D463F",
"* c #616166",
"= c #4A3733",
"- c #56545A",
"; c #BABBBA",
": c #C7CBCB",
"> c #D6D9DA",
", c #ABABAA",
"< c #362624",
"1 c #49454A",
"2 c #C6E9EF",
"3 c white",
/* pixels */
" .XoooO+@#$+%&++@&@@##++@@##@%%######+##@@##@&&@%%@#++@%%@##",
"O*XO $oO@#oX=&@#@%%@+###%&#@%&@+@++%%+######%=&+@#+@@+#@@#@#",
"$*XO X$o#$#%%%%%@&&%#++#@%@#@%%#+$$#+$#@#@##@&&o##+#@#+###@#",
"X-XOo  O@+#@#+ $@&=@#+###%@@#%%+ ++o$ ++##++#&&#@@##@+$###%@",
".-XOO$OO%@++@#  +#####@%@@%#@%@@++#+++++##@@@=&#@#+@@++@#+@@",
".. Oo$O;%% o+#o####++#%@@@@@%%@#$ ###@@+#@#@@&&@@#++++#%#+@#",
" .XoOXo:#%$ooo$#++++++++@@@%@@++$+++&%##+++@#=&#@@+ o$+&%+##",
" *Xo . :o+oO $+++++#%+++#@##+###++++@#####@&@=&##@+O$++&@o+#",
" **X$. >,oo ++ ,$#+#%#$ &<=&&%$o $+$$+##@%%%@&&@##+$+#%=&#+#",
".-*X$X..o$##+$$#++o$+ O &===&%#ooo#++ oo#+,+$@%++#@+ #&&=&&&",
"1-*.X.-1--1=111=1111=11=1&-&--1=1-11-**-*&*o$*-XX-*..*-&%%&%",
"**...*****-*----*---11--***-*-------11111-11=1111111111--11-",
"*.X...XX*-*.*----****..**X.***..*****-----****-**---**----**",
".*.X.**X.XX-*X.***..........*.X.**...****************.**..X.",
"XX X..X$..X.*.X...XX...X.*.X*.XX........****.-*.***..**..*..",
"o O$X$$ $XX XX$XXX  $$  oX$$$ o$$X $*.XXXXXX$..XXX$ $$XXXX  ",
",:;,O;O ,,:;o ooO;;;;:>::::;:::;,;;X*XX.X ,,,,;,;;;;:;;::;;:",
"@,;::>:;;,;OO,2>$++##X ##.X#oO,;;,O**..*$OoOO,O,,,;;;+   Oo,",
"&@@oo,;OOoOoO$ O#&%&&&===&&&%@$*$o **.*-O,X$ O+ o o,;+#@&$o ",
"%%%%@$%@@&%+%&&%%%&&%%%@##%%@@#$oO,.-.**oO$$ o $$+#,;$+o@# @",
"%@&%@ %%%%%@&&%%%%&%%%@# +&&@&&+,::*1***o +$  o o+@,,o+ +++#",
"&@%%&%%%&%@%%%&%#@%&%#%%+@&%%&@#$$ .-..*o+#$+#$+$+$++ #++ ++",
"&%@%%%%%&@@&@@&%+#@%@+%&%%%%%@@$@=+X-..$,##++#+@#$$+++++++++",
"&@@%%%%@&%%&%%%@ #%&%@#$%@O%%@@$o&O$1.*Xo#+++++%@+++++ +#+++",
"%@@@%%%&%@%@@%&+;@&==&@##@O%#+##+& X-...$@#$+oo#oo#++%#@@+++",
"@@%&%@&=%@%@@&=%#@@&&%@%@%%%@+++$# X-XX.#@#$ oo+o++#+$@=%+++",
"@%%&%%==&&&&&&%%%#@&%@@%@%%&%++@+O$.-XX*##@##@#+#@@#o;O&%#@@",
"==&&&&==%##%%=&&%%-&%%%@%%##@@#%%&&.-X..X$++@@@@@+oo o$@++@@",
"<&&&%%%@$$###%&&=&-&&@@%@+@###@@@&#X*X..oo ## ooooo+o+++o+@+",
"&@@%%@%%##@#@@@&&%%===%@%@%#++#@%&O . XX+++@#$ooO, +oooo#+##",
"=%#@%&&&+#@###@=%%-&&&&%##@#@#@%%&$ *$XX+@##+++++oOo+oo+@%%#",
"=@#%%&%#+@@+#X&=%%&%+ %&@%&%@@%&@%%.-.XXO+++++++++oOOoo++@@@",
"=&==%@%%##$$###&%@%&#+#@@@@@@%&%@%*.*..* , ++o++o++o+@%%###%",
"==&# +&&#@#O##$=&@%&%%@#%@##+#&@#%#X*..* o++o+#o$++&@&&&%@@&",
"&#@+ $+# #@@$X&&@@%%@%%##$##$#&%%&&X*OX. ++++++ooo##O#&%@%@%",
"&#@@+ o$ $ #*@&@##%%*&%@+,@#*===&%@$-Oo.oX$+++oooo++oO@&&%##",
"=&=&#O#&+O+&<<=%&<<<==&%&=<==&&%@+#.- ,X$#X#@#oo+@%# o+#%%+#",
"O%%%#o@%o:;&<<=%===<=&==%+@ +++O;,o** O.#oo+++++#+o$##+O#%@@",
"O*---*-1**.-*..****%-*.**X. ...*---*.XX*XOooOo+@%@X#@@ X#o..",
"1*---**---******...-1*.*-*111----1-**-..-11111111111111111--",
"-.--**.*...**.**X.*.XX.*XX.X**X.*.--*******.*--***-**-*-----",
".***.*..*.XX--**.**X.***X**X**....**.XX....*.....X.XX****...",
"o$X  XX..$ oX.$$X$XX..*.X$XX.$..X..X.X*..*.*......X.*...*.*.",
"o$XO;,$Xoo$$oOO,O,;,::o ,OooO,OOOo  o $X..X.....XX.****.X..X",
"o$ $,OO $oo+O,O,,O,o,O,o ++  ++o$,O,o$,;,oooo,,O,OooOo Oo   ",
"$Xo@ $$+#+o$ ,o O, @@%@#%@#++@@###+$-<%++ooooO, +++oOOoo+++#",
"X$$%$@%&%#++%#X% +@&&#+#%#$++#@+++##1<=&+ oooOo## $  ,O@@###",
"   %#%=&%%%+#&=&%&%&#++##$oo+@##%%@X=<=&+X.@#+$+o+#%&+#@@##+",
"X.-%X%&@#$o++%&@@@%@+++++++++@#++++*===&@%%@@@oo+@&%&=%%%###",
"X1&&#&&%%+$#%&%@@@%@#@##@%%%#$+++oo*==1&#++oooo$$o@%%@#%%##@",
"X.%=%&%%%#+#@%@@%%@%@+#@@@##+o+ ++ @===1@#+++oo+ ,+&=%%%%@%&",
"X$%=&&%@@#@#+@@@%&%%%@@%@+@&@+o$+o$@===&@%+++oooooo$%&=&&&&%",
".$&&&&##@+##+#%@%&=&@&&%@&==@oo++o$%===&@@#++++ooooOOo#&&&&+",
".X&&&=@#%@+@##%%%%==&=<<<<=+ ++++#O.=&1%$+@#$  o++o+oo+&=&&+",
".X&===@#%&&%@@&&&%&%&==&@@@@%%%+#+o*=&&%o+@o +oo++++Oo#==%&@",
".X%&&&%@%%%%#$+%%&=%%%%@+@@#@##+$+#@=&&@$+#oo $Oo##+Oo#==@%%",
"*.@&%%@@#@@#@+o#%%&&@@@#%%@++;O +o$*=&&@@+o+o  o O+Oo$#==&%&",
"-.@&&%#@@#####Oo%#&=@###@@#+#+++oo #=&%+++++$#+++o ++++&=&%%",
"-X*1&%###@#+#+o +#&&###@###++++o;,o+&&&@++@@&%#oo+&=%#&=%#++",
"*$-&&%+#@@++@@ X@@&=%@@@#++oooo#+OO#&%&&%%=%&&%&%%%&&==%@+#o"
};
