/* XPM */
static char *bf11e2e3976749cff49ec824cd278397FCOwf5dDrMft2wGV[] = {
/* columns rows colors chars-per-pixel */
"60 60 233 2 ",
"   c None",
".  c black",
"X  c #080500",
"o  c #090600",
"O  c #0B0800",
"+  c #0D0800",
"@  c #140D00",
"#  c #160F00",
"$  c #1A1100",
"%  c #1C1300",
"&  c #1F1500",
"*  c #201500",
"=  c #201600",
"-  c #221700",
";  c #261900",
":  c #281B00",
">  c #291B00",
",  c #291C00",
"<  c #2A1C00",
"1  c #2B1D00",
"2  c #2C1D00",
"3  c #2F2000",
"4  c #322200",
"5  c #332200",
"6  c #342200",
"7  c #342300",
"8  c #352300",
"9  c #362400",
"0  c #372400",
"q  c #372500",
"w  c #382500",
"e  c #382600",
"r  c #392600",
"t  c #3A2600",
"y  c #3A2700",
"u  c #3B2800",
"i  c #3C2800",
"p  c #3F2A00",
"a  c #402B00",
"s  c #412C00",
"d  c #422C00",
"f  c #432C00",
"g  c #432D00",
"h  c #442D00",
"j  c #442E00",
"k  c #452E00",
"l  c #462F00",
"z  c #472F00",
"x  c #483000",
"c  c #4B3200",
"v  c #4E3400",
"b  c #4F3500",
"n  c #513600",
"m  c #533800",
"M  c #543800",
"N  c #553900",
"B  c #563A00",
"V  c #573A00",
"C  c #583A00",
"Z  c #593B00",
"A  c #593C00",
"S  c #5B3D00",
"D  c #5E3F00",
"F  c #604000",
"G  c #614100",
"H  c #624100",
"J  c #654400",
"K  c #664400",
"L  c #674500",
"P  c #684500",
"I  c #694600",
"U  c #6A4600",
"Y  c #6A4700",
"T  c #6B4700",
"R  c #6C4800",
"E  c #6E4900",
"W  c #6E4A00",
"Q  c #704B00",
"!  c #714C00",
"~  c #724C00",
"^  c #734D00",
"/  c #744D00",
"(  c #754E00",
")  c #795100",
"_  c #7A5100",
"`  c #7A5200",
"'  c #7B5200",
"]  c #7E5400",
"[  c #805500",
"{  c #805600",
"}  c #815600",
"|  c #845800",
" . c #855900",
".. c #865A00",
"X. c #875A00",
"o. c #885A00",
"O. c #895B00",
"+. c #895C00",
"@. c #8A5D00",
"#. c #8B5D00",
"$. c #8C5D00",
"%. c #8C5E00",
"&. c #8D5E00",
"*. c #8E5F00",
"=. c #8F5F00",
"-. c #906000",
";. c #916100",
":. c #926100",
">. c #926200",
",. c #936300",
"<. c #956400",
"1. c #986500",
"2. c #986600",
"3. c #996600",
"4. c #9A6600",
"5. c #9A6700",
"6. c #9B6700",
"7. c #9B6800",
"8. c #9C6800",
"9. c #9D6800",
"0. c #9C6900",
"q. c #9D6900",
"w. c #9F6A00",
"e. c #A06B00",
"r. c #A16C00",
"t. c #A26C00",
"y. c #A26D00",
"u. c #A36D00",
"i. c #A46D00",
"p. c #A46E00",
"a. c #A56E00",
"s. c #A56F00",
"d. c #A66F00",
"f. c #A77000",
"g. c #AD7400",
"h. c #AE7400",
"j. c #AE7500",
"k. c #AF7500",
"l. c #B17600",
"z. c #B27700",
"x. c #B37700",
"c. c #B37800",
"v. c #B47800",
"b. c #B57800",
"n. c #B57900",
"m. c #B67A00",
"M. c #B77A00",
"N. c #B77B00",
"B. c #B87B00",
"V. c #B97B00",
"C. c #BA7C00",
"Z. c #BB7C00",
"A. c #BB7D00",
"S. c #BC7D00",
"D. c #C18000",
"F. c #C08100",
"G. c #C18100",
"H. c #C38200",
"J. c #C48300",
"K. c #C68400",
"L. c #C88500",
"P. c #C98600",
"I. c #CC8800",
"U. c #CC8900",
"Y. c #CD8900",
"T. c #CE8900",
"R. c #CE8A00",
"E. c #D08B00",
"W. c #D18B00",
"Q. c #D18C00",
"!. c #D38C00",
"~. c #D38D00",
"^. c #D48D00",
"/. c #D48E00",
"(. c #D78F00",
"). c #D79000",
"_. c #D89100",
"`. c #D99100",
"'. c #DA9200",
"]. c #DC9400",
"[. c #DD9400",
"{. c #DE9400",
"}. c #DE9500",
"|. c #DF9500",
" X c #E09600",
".X c #E19600",
"XX c #E19700",
"oX c #E29700",
"OX c #E29800",
"+X c #E39800",
"@X c #E49800",
"#X c #E49900",
"$X c #E59900",
"%X c #E59A00",
"&X c #E69A00",
"*X c #E79A00",
"=X c #E79B00",
"-X c #E89B00",
";X c #E99B00",
":X c #E89C00",
">X c #E99C00",
",X c #EA9C00",
"<X c #EB9C00",
"1X c #EB9D00",
"2X c #EB9E00",
"3X c #EC9D00",
"4X c #EC9E00",
"5X c #ED9E00",
"6X c #ED9F00",
"7X c #EE9F00",
"8X c #EFA000",
"9X c #F0A000",
"0X c #F0A100",
"qX c #F2A100",
"wX c #F3A200",
"eX c #F4A300",
"rX c #F7A400",
"tX c #F7A500",
"yX c #F9A600",
"uX c #FAA700",
"iX c #FDA800",
"pX c #FDA900",
"aX c #FFAA00",
"sX c #FFAB00",
"dX c #FFAC00",
"fX c #FFAD00",
"gX c #FFAE00",
"hX c #FFAF00",
"jX c #FFB000",
"kX c #FFB100",
"lX c #FFB200",
"zX c #FFB300",
"xX c #FFB400",
/* pixels */
"                                              . . . . . . . . . . . . . .                                               ",
"                                            @ # # # # # # # # # # # # # # @                                             ",
"                                    . . . . R +X`.`.`.`.`.`.`.`.`.`.`.`. XR . . . .                                     ",
"                                    = = = $ { @X X X X X X X X X X X X X@X| $ = = =                                     ",
"                            . . . 1 {.{.{.{.{.+X+X+X+X X+X+X+X+X X X@X@X@X X{.{.{. X1 . . .                             ",
"                            1 1 1 v  X X+X=XR.c.l.l.l.l.l.l.c.g.l.l.l.l.c.R.@X X X Xv 1 1 1                             ",
"                        3 e Q.+X X+X+XQ.g.N.N . - e 9 q q q q q 9 w e = . N N.g.Q. X X@X+XQ.e 3                         ",
"                    . . N.@X X X@X@X1X5.. . . . e.zXhXsXhXsXhXhXhXhXzXt.. . . . 0.1X@X@X{. X@XN.. .                     ",
"                    e p F.+X{.].d.e.t. .k z z f S.hXsXsXiXiXsXsXsXiXsXV.k z z k  .t.e.t.]. X@XF.p e                     ",
"                . . 0.1X+X X@XR.. . . z zXhXhXhXsXsXiXsXsXsXsXiXsXiXsXsXhXhXhXzXx . . . R.@X X X1X0.. .                 ",
"                p c c.+X X{.5.$.S Z M $.sXsXiXsXsXiXsXsXsXsXsXiXsXsXiXsXsXsXiXsX$.N Z S $.5.]. X XN.x p                 ",
"              . ) 0X X X@X{.o + iXhXhXhXsXsXsXsXsXsXsXiXiXiXsXsXiXsXsXsXsXsXsXsXhXzXhXiX+ o ].<X X X0X) .               ",
"              u d.@X|.+X<.] R ) yXsXsXiXsXsXiXiXiXsXsXsXsXsXsXiXsXsXiXiXiXsXsXsXsXsXsXrX) R { ,. X X+Xf.u               ",
"            . ~ 1X X@X1X= . 1XhXsXsXsXsXiXsXsXsXsXsXiXiXsXiXsXsXiXsXsXsXsXsXiXiXsXiXsXsXhX<X. = 1X@X{.1X~ .             ",
"            . Q 1X@X<.~ ) { 0XsXiXsXiXsXiXsXsXsXsXiXsXsXiXsXiXsXiXsXsXsXsXiXsXsXiXsXiXsXsX7X{ ) ~ <.+X1X~ .             ",
"            . R @X@Xs . /.zXsXsXsXsXiXsXsXsXiXiXsXsXiXsXsXsXiXsXsXsXiXiXsXsXiXsXsXsXiXsXsXsXzXW.. f @X=XR .             ",
"        . s ) g.@X@Xk . T.sXsXiXsXsXiXsXsXsXsXiXsXsXsXiXsXsXsXsXsXsXiXiXsXsXsXsXsXiXsXsXiXsXsXT.. k @X+Xg.) s .         ",
"        . N 0X+X@X3Xs . T.sXsXsXiXsXsXsXhXsXsXsXsXiXsXsXhXsXhXsXiXsXsXsXsXiXsXhXsXsXsXiXsXsXsXT.. s 8X@X@X8Xm .         ",
"        . m =X@X,.n  .e.<XsXiXsXsXsXsX`.{ S.sXsXsXsXiXsX5. . .5.sXsXiXsXsXhXZ.{ `.sXsXiXsXiXsX<X0.%.v ,.@X1Xm .         ",
"        . m =X=XD . b.zXsXsXsXsXsXsXsXD.> $.zXsXiXsXsXsXZ e q Z sXsXsXsXiXhX=.> D.sXsXsXsXiXsXsXzXb.. D =X=Xm .         ",
"        . v @X1XF . g.hXsXsXiXiXiXsXsX3XH.9.Z.hXhXhX5./ f t t h / 5.hXhXhXZ.9.D.3XsXiXsXsXiXsXsXhXg.. D 1X=Xv .         ",
"    . 5 t.N.1X%.] V.<XsXiXsXsXsXiXsXiXsXhX<X9.Q / / l.H.H.P.P.P.H.l./ / Q 9.<XhXsXsXsXsXsXsXiXsXsX<XZ.] %.=XV.t.5 .     ",
"    . e 1X+X@XL o.zXsXsXiXsXsXsXsXsXsXsXsXhX0.9 e 9 W.hXsXsXsXsXhXW.9 e 9 e.hXsXsXsXiXiXiXiXsXsXsXsXzXo.F 1X X<Xe .     ",
"    . e @X X1XL o.hXsXsXsXsXiXiXsXiXiXsXsXsXe.9 9.(.wXsXsXsXsXsXsXwX/.9.9 e.hXiXsXsXsXsXsXsXsXiXsXsXzXo.L 1X X@Xe .     ",
"    . e @X X<XL o.hXsXsXsXiXsXsXsXiXiXsXiXhX0.5 Z.hXiXsXsXsXiXsXsXiXhXZ.5 e.hXsXsXiXiXsXiXsXsXsXiXsXhXo.P @X X@Xe .     ",
"    . e @X X@XL o.hXsXsXsXsXiXsXsXsXsXsXsXb.9. X0XsXsXsXiXsXiXsXsXiXsX0X X5.b.hXsXsXsXsXsXsXiXiXiXsXhXo.L <X+X@Xe .     ",
"    . e @X{.1XL o.hXiXsXiXiXsXsXiXsXsXiXhXd.5.hXsXsXiXiXsXiXsXsXsXsXiXsXhX1.d.sXiXsXsXiXsXiXsXsXsXsXhXo.L =X{.@Xe .     ",
"    . e @X+X@XL o.hXsXsXsXsXsXiXiXsXsXiXhXd.1.hXsXsXsXsXsXsXsXiXiXsXsXsXhX5.i.hXiXsXsXiXsXsXiXsXsXiXhXo.L =X+X@Xe .     ",
"    . e =X+X=XL o.hXsXsXiXsXsXsXsXsXsXiXsXd.<.hXsXsXsXiXiXiXsXsXsXsXiXiXhX1.d.hXsXsXsXiXsXiXsXsXsXsXhX%.L =X{.@Xe .     ",
"    . e +X|.=XL o.hXsXsXsXsXiXiXsXiXsXsXhXd.5.hXiXiXsXsXsXsXsXiXiXsXsXsXsX5.i.hXsXiXsXsXsXiXsXiXsXsXhXo.L 1X+X@Xe .     ",
"    . e @X|.=XL o.hXsXsXsXiXsXsXiXsXiXsXsXd.1.hXsXsXiXsXsXsXsXiXiXsXsXsXhX5.d.sXiXsXiXsXsXsXiXsXiXsXhX .L 1X|.+Xe .     ",
"    . q =X{.1XL o.hXiXiXsXsXiXsXsXsXiXsXhXi.5.hXsXiXsXsXiXiXsXsXsXsXiXsXhX<.i.hXsXsXiXsXiXsXsXsXiXsXzX+.L =X|.%Xe .     ",
"    . e =X|.=XL +.zXiXsXsXsXiXsXiXsXsXsXsXl.5.<XrXiXsXsXiXsXsXsXiXiXsXrX<X5.l.hXiXsXsXiXsXsXsXiXsXiXhXo.P <X{.+Xe .     ",
"    . e @X{.1XL  .hXsXsXiXsXiXsXsXsXiXsXsXhX9.9 Z.hXsXiXsXsXiXsXsXsXhXZ.w e.sXsXiXsXsXiXsXiXsXsXsXiXhXo.P @X+X@Xe .     ",
"    . e @X+X=XL o.hXsXsXsXiXsXsXsXiXsXiXiXhX9.9 i. XrXsXsXsXsXsXsXrX Xi.9 9.hXsXsXsXsXsXiXsXiXsXsXsXhXo.P @X X@Xe .     ",
"    . e @X+X=XL o.zXsXsXsXsXsXiXsXiXsXsXsXhXe.9 t w W.hXsXsXsXsXhX!.e t 9 9.hXsXsXiXiXsXsXsXiXsXsXsXzX%.L <X+X=Xe .     ",
"    . 9 g.F.=X| { P.<XsXiXiXsXsXiXsXsXsXhX7X9.K R P N.W.!./././.W.Z.K P K 9.7XhXsXsXiXsXsXsXiXsXsX3XP.{  .@XF.g.9 .     ",
"        . n @X1XF . l.hXsXsXsXiXsXsXsX7XW.0.b.hXsXhX,.P k t t k P =.hXsXhXb.0.W.7XsXsXsXiXsXiXsXhXg.. F 1X1Xn .         ",
"        . m @X1XD . b.zXsXiXsXiXsXiXhXF.1 =.hXsXsXiXsXsXZ e t Z sXsXsXsXsXhX=.2 D.sXsXiXsXsXsXsXzXc.. D @X1Xm .         ",
"        . m 1X@X .f =.l.7XsXsXsXsXsXsX(./ b.sXsXsXsXsXiX$.' ' =.sXsXiXsXsXsXN.~ /.sXsXiXsXsXsX3Xl.$.p %.@X=Xm .         ",
"        . N 8X+X@X3Xs . R.sXsXsXiXsXsXsXhXsXsXiXiXsXsXsXsXhXhXsXsXsXsXiXsXiXsXhXsXsXsXsXiXiXsXT.. s 8X@X+X8Xm .         ",
"        . s %.N.@X@Xl . R.hXsXiXsXsXiXsXiXsXsXiXsXsXiXiXsXiXsXsXiXiXsXsXsXsXsXiXsXsXiXsXsXsXsXT.. k @X+XN.%.k .         ",
"            . R 1X@Xp . !.zXsXsXsXiXsXiXsXsXsXsXsXiXsXsXsXsXiXsXsXsXiXsXiXsXsXsXsXiXsXsXsXsXzXW.. s =X=XP .             ",
"            . W 1X+X%.F  .=.wXiXsXiXsXsXsXiXiXsXsXsXiXsXsXiXsXsXsXiXsXsXiXsXiXsXsXsXsXiXsX0X,. .D %.+X=X~ .             ",
"            . ~ 1X+X@X1X= . 1XzXsXsXsXsXsXsXsXiXiXiXsXsXsXsXiXiXsXsXiXsXsXiXsXsXsXiXsXsXhX<X. = =X=X|.8X~ .             ",
"              k g.@X{. Xo./ ) o.yXsXsXiXiXiXsXsXsXsXsXiXiXsXsXsXiXsXiXsXsXiXsXiXsXsXsXyXo._ / o.+X|.+Xg.l               ",
"              . ) 8X+X{.@X{.o + iXhXhXhXsXsXiXsXsXsXsXiXiXsXsXsXsXiXsXsXsXsXsXsXsXhXzXsXO o {.@X|.+X8X) .               ",
"                l S Z.@X X].$.{ R P K 5.sXiXsXsXiXiXsXsXsXsXiXiXsXsXsXiXiXsXsXsX5.K P R { $.{. X+XV.S l                 ",
"                . . 0.3X+X X@XQ.. . . l xXhXhXzXsXsXsXiXsXsXsXsXiXsXsXsXhXhXhXzXl . . . R.@X{.+X3X7.. .                 ",
"                    s v H.+X X`.<.,.<.] A S Z n F.hXsXsXsXiXiXsXiXsXhXD.n Z Z N ] <.<.<.).+X+XJ.v s                     ",
"                    . . V.1X X+X@X=X1X7.. . . . t.zXhXzXhXhXhXhXhXhXzXe.. . . . 7.1X=X@X+X+X1XN.. .                     ",
"                        u s Q.@X@X@X+XU.0.d.v . 1 k s p f f f f h f k > . v d.e.U.+X@X@X@XQ.s u                         ",
"                            e e q S {.+X@X@XK.f.f.w.f.f.t.t.t.t.t.t.t.f.d.K.@X@X+X{.S q e q                             ",
"                            . . . 1 +X+X@X+X+X@X%X%X|.+X@X@X@X@X+X+X+X+X@X+X+X+X+X@X: . . .                             ",
"                                    2 2 2 ;  .=X|.|.|.|.+X{. X X|.+X+X|.@X+.; 2 2 2                                     ",
"                                    . . . . W @X|.|.|.|.|.{.{.{.|.{.{.{.=XR . . . .                                     ",
"                                            % = = = = = = = = = & - % - - %                                             ",
"                                              . . . . . . . . . . . . . .                                               ",
"                                                                                                                        ",
"                                                                                                                        "
};
