/* XPM */
static char *result[] = {
/* columns rows colors chars-per-pixel */
"60 60 72 1 ",
"  c #A2A2A2",
". c #A4A4A4",
"X c #A5A5A5",
"o c gray65",
"O c #A7A7A7",
"+ c gray66",
"@ c #A9A9A9",
"# c #AAAAAA",
"$ c gray67",
"% c gray68",
"& c #AEAEAE",
"* c #AFAFAF",
"= c gray69",
"- c #B1B1B1",
"; c #B2B2B2",
": c gray70",
"> c #B4B4B4",
", c gray71",
"< c #B6B6B6",
"1 c #B7B7B7",
"2 c gray72",
"3 c #B9B9B9",
"4 c gray73",
"5 c #BBBBBB",
"6 c #BCBCBC",
"7 c gray74",
"8 c gray",
"9 c gray75",
"0 c #C0C0C0",
"q c #C1C1C1",
"w c gray76",
"e c #C3C3C3",
"r c gray77",
"t c #C5C5C5",
"y c #C6C6C6",
"u c gray78",
"i c #C8C8C8",
"p c gray79",
"a c #CACACA",
"s c #CBCBCB",
"d c gray80",
"f c #CDCDCD",
"g c #CECECE",
"h c gray81",
"j c #D0D0D0",
"k c gray82",
"l c #D2D2D2",
"z c LightGray",
"x c gray83",
"c c #D5D5D5",
"v c gray84",
"b c #D7D7D7",
"n c #D8D8D8",
"m c gray85",
"M c #DADADA",
"N c gray86",
"B c gainsboro",
"V c #DDDDDD",
"C c gray87",
"Z c #DFDFDF",
"A c gray88",
"S c #E1E1E1",
"D c #E2E2E2",
"F c gray89",
"G c #E4E4E4",
"H c gray90",
"J c #E6E6E6",
"K c #E7E7E7",
"L c gray91",
"P c #E9E9E9",
"I c #EAEAEA",
"U c None",
/* pixels */
"UUUUUUUUUUUUUUUUUUUUUUUUUppiirerw964UUUUUUUUUUUUUUUUUUUUUUUU",
"UUUUUUUUUUUUUUUUUUUUfsptq8532,,2468qrtr03UUUUUUUUUUUUUUUUUUU",
"UUUUUUUUUUUUUUUUjhae5,:>1470w90w063<>:<7riy8UUUUUUUUUUUUUUUU",
"UUUUUUUUUUUUUUlfe2:19ifkzzxxxjkxxzzljdy8<>4tsy2UUUUUUUUUUUUU",
"UUUUUUUUUUUUxd8>3thxcccccccccklccccccccczfw<,qfa3UUUUUUUUUUU",
"UUUUUUUUUUxh8>8gvbbbbbbbbbbbbxxbbbbbbbbbbbbcs5,wjuUUUUUUUUUU",
"UUUUUUUUbxw:8jnmnnnnnnmmnbczlfglzcbnmmnnnnnnmbf4>uk9UUUUUUUU",
"UUUUUUUmz61acmMMMMMMMnlae9899679980rsznMMMMMMMmxy,qciUUUUUUU",
"UUUUUUMk28vBMbnNNBNcp98rshklkggklkhae80avNNNMnnMBl46cfUUUUUU",
"UUUUUBk1rMVBBBMmNvy7rjxlgUUUUUUUUUUflxhe7ubNnMBBBVn75vgUUUUU",
"UUUUBc2rBCVVVVCNi4tcbgUUUUUUUUUUUUUUUUgvxe4sBCVVVVCm87MsUUUU",
"UUUmN70BZCCCCZMr8kblUUUUUUUUUUUUUUUUUUUUgch7uBZCCCCZn4rBeUUU",
"UUUZp3nAAAAAANwqmmUUUUUUUUUUUUUUUUUUUUUUUUbb0tVAAAAAAl1knUUU",
"UUCm3dSAAAASZy0NxUUUUUUUUUUUUUUUUUUUUUUUUUUvm9pASAAAAAe7CpUU",
"UUSa4BDSSSSDj7nnUUUUUUUUUUUUUUUUUUUUUUUUUUUUmc6zDSSSSDv1zmUU",
"UUZ8yDDDDDDC0sZrUUUUUUUUUUUUUUUUUUUUUUUUUUUUuZueADDDDDA8yA5U",
"USN3lGFFFFGv7MbUUUUUUUUUUUUUUUUUUUUUUUUUUUUUUmb7mFFFFFFa8SyU",
"Uvf-jNMMMMNt3byUUUUUUUUUUUUUUUUUUUUUUUUUUUUUUpc1pNMMMMNp;vtU",
"Uq6%7098766&$3-UUUUUUUUUUUUUUUUUUUUUUUUUUUUUU8e;<q98876:X1= ",
"JFDCMbxkhfsppufUUUUUUUUUUUUUUUUUUUUUUUUUUUUUUGFABnczjgdapiag",
"JLLGSCNnvxlkhhjUUUUUUUUUUUUUUUUUUUUUUUUUUUUUUKPJFZBmbxzkjhjh",
"xdirq8531,:;-=>UUUUUUUUUUUUUUUUUUUUUUUUUUUUUUkaye9642<>;-==<",
"U873,;*%#+OoX.UUUUUUUUUUUUUUUUUUUUUUUUUUUUUUUU841:=&$@+oX. U",
"UUnlgsurw98657UUUUUUUUUUUUUUUUUUUUUUUUUUUUUUUUMxjdpye08765UU",
"UUkkdue07531<UUUUUUUUUUUUUUUUUUUUUUUUUUUUUUUUUUlgptq96421>UU",
"UUUhdyr9833<2UUUUUUUUUUUUUUUUUUUUUUUUUUUUUUUUUUxdarw75321UUU",
"UUUzMgxahudtdUUUUUUUUUUUUUUUUUUUUUUUUUUUUUUUUUUCxvjgfpdysUUU",
"UUUmScNkbgzgzUUUUUUUUUUUUUUUUUUUUUUUUUUUUUUUUUUFBNnxvhcdxUUU",
"UUUmSxNkvgzfzUUUUUUUUUUUUUUUUUUUUUUUUUUUUUUUUUUDNNnxvhxdxUUU",
"UUUmSxNkvgzfzUUUUUUUUUUUUUUUUUUUUUUUUUUUUUUUUUUDNNnxvhxdxUUU",
"UUUmSxNkvgzfzUUUUUUUUUUUUUUUUUUUUUUUUUUUUUUUUUUSNNnxvhxdxUUU",
"UUUmSxNkvgzfzUUUUUUUUUUUUUUUUUUUUUUUUUUUUUUUUUUSNNnxvhxdxUUU",
"UUUmSxNkvgzfzUUUUUUUUUUUUUUUUUUUUUUUUUUUUUUUUUUSNNnxvhxdxUUU",
"UUUmSxNkvgzfzUUUUUUUUUUUUUUUUUUUUUUUUUUUUUUUUUUSNNnxvhxdxUUU",
"UUUmSxNkvgzfzUUUUUUUUUUUUUUUUUUUUUUUUUUUUUUUUUUSNNnxvhxdxUUU",
"UUUmSxNkvgzfzUUUUUUUUUUUUUUUUUUUUUUUUUUUUUUUUUUSNNnxvhxdxUUU",
"UUUmSxNkvgzfzUUUUUUUUUUUUUUUUUUUUUUUUUUUUUUUUUUSNNnxvhxdxUUU",
"UUUmSxNkvgzfzUUUUUUUUUUUUUUUUUUUUUUUUUUUUUUUUUUSNNnxvhxdxUUU",
"UUUmSxNkvgzfzUUUUUUUUUUUUUUUUUUUUUUUUUUUUUUUUUUSNNnxvhxdxUUU",
"UUUmSxNkvgzfzUUUUUUUUUUUUUUUUUUUUUUUUUUUUUUUUUUSNNnxvhxdxUUU",
"UUUmSxNkvgzfzUUUUUUUUUUUUUUUUUUUUUUUUUUUUUUUUUUSNNnxvhxdxUUU",
"UUUmSxNkvgzfzUUUUUUUUUUUUUUUUUUUUUUUUUUUUUUUUUUSNNnxvhxdxUUU",
"UUUmSxNkvgzfzUUUUUUUUUUUUUUUUUUUUUUUUUUUUUUUUUUSNNnxvhxdxUUU",
"UUUmSxNkvgzfzUUUUUUUUUUUUUUUUUUUUUUUUUUUUUUUUUUDNNnxvhxdxUUU",
"UUUmSxNkvgzfzUUUUUUUUUUUUUUUUUUUUUUUUUUUUUUUUUUSNNnxvhxdxUUU",
"UUUmSxNkvgzfzUUUUUUUUUUUUUUUUUUUUUUUUUUUUUUUUUUSNNnxvhxdxUUU",
"UUUmScNkbgzgzUUUUUUUUUUUUUUUUUUUUUUUUUUUUUUUUUUDNNnxvhcdxUUU",
"UUUkvshtawu0uUUUUUUUUUUUUUUUUUUUUUUUUUUUUUUUUUUMjlssitywrUUU",
"UUvkfir085313UUUUUUUUUUUUUUUUUUUUUUUUUUUUUUUUUUcgatw86431<UU",
"UUFCMvlhdaiytuUUUUUUUUUUUUUUUUUUUUUUUUUUUUUUUUJABbxjfspuytUU",
"Uhditq8631,>:;>UUUUUUUUUUUUUUUUUUUUUUUUUUUUUUlgaye0742<,::-U",
"Ccjfpye08653215UUUUUUUUUUUUUUUUUUUUUUUUUUUUUUMlhsurw97542127",
"ISVMvzjgspuyrihUUUUUUUUUUUUUUUUUUUUUUUUUUUUUUFCNnckhdaiytyfh",
"PSZFZNnvzkhffllUUUUUUUUUUUUUUUUUUUUUUUUUUUUUUFCFAVMbxljgfjzj",
"PSAGAVMbxljhgzlUUUUUUUUUUUUUUUUUUUUUUUUUUUUUUFCGDCNnvzkjgkzj",
"PSAGAVMbxljhgzlUUUUUUUUUUUUUUUUUUUUUUUUUUUUUUFCGDCNnvzkjgkzj",
"PSAGAVMbxljhgzlUUUUUUUUUUUUUUUUUUUUUUUUUUUUUUFCGDCNnvzkjgkzj",
"PSAGAVMbxljhgzlUUUUUUUUUUUUUUUUUUUUUUUUUUUUUUFCGDCNnvzkjgkzh",
"IFJKGAVNmbcxzzzkUUUUUUUUUUUUUUUUUUUUUUUUUUUUUGGLHDZBMnvxzxzj",
"FSAVmbxljgfdsaa06eisUUUUUUUUUUUUUUUAFAVVVmlUCFFZNnclhfsapiut"
};
